<svg xmlns="http://www.w3.org/2000/svg" viewBox="0 0 64 64">
  <rect width="64" height="64" rx="14" fill="#1a1614"/>
  <g fill="#f7f2ea">
    <path d="M20 22 c-3.5 0-6 2.5-6 6 v8 c0 3.5 2.5 6 6 6 c2.5 0 4.5-1.5 5.5-3.5 h13 c1 2 3 3.5 5.5 3.5 c3.5 0 6-2.5 6-6 v-8 c0-3.5-2.5-6-6-6 h-7.5 l-4.5-3 l-4.5 3 z"/>
    <g fill="#1a1614">
      <circle cx="22" cy="32" r="1.4"/>
      <rect x="20.7" y="29.6" width="2.6" height="4.8"/>
      <rect x="19.6" y="30.7" width="4.8" height="2.6"/>
      <circle cx="42" cy="29" r="1.3"/>
      <circle cx="45" cy="32" r="1.3"/>
      <circle cx="42" cy="35" r="1.3"/>
      <circle cx="39" cy="32" r="1.3"/>
      <rect x="30" y="30.5" width="4" height="1.2" rx="0.6"/>
      <rect x="30" y="32.7" width="4" height="1.2" rx="0.6"/>
    </g>
    <path d="M30 22 c-0.5-2 0-4 1-5 M34 22 c0.5-2 0-4-1-5" stroke="#f7f2ea" stroke-width="1.3" stroke-linecap="round" fill="none"/>
  </g>
</svg>